<svg xmlns="http://www.w3.org/2000/svg" xmlns:xlink="http://www.w3.org/1999/xlink" width="470" zoomAndPan="magnify" viewBox="0 0 352.5 149.999998" height="200" preserveAspectRatio="xMidYMid meet" version="1.0"><defs><g/></defs><g fill="#0f172a" fill-opacity="1"><g transform="translate(-5.531869, 137.394485)"><g><path d="M 75.046875 0 L 48.953125 -47.34375 L 41.625 -47.34375 L 41.625 0 L 11.078125 0 L 11.078125 -125.421875 L 62.359375 -125.421875 C 72.242188 -125.421875 80.671875 -123.691406 87.640625 -120.234375 C 94.609375 -116.785156 99.816406 -112.050781 103.265625 -106.03125 C 106.722656 -100.019531 108.453125 -93.320312 108.453125 -85.9375 C 108.453125 -77.601562 106.097656 -70.160156 101.390625 -63.609375 C 96.691406 -57.054688 89.753906 -52.410156 80.578125 -49.671875 L 109.53125 0 Z M 41.625 -68.96875 L 60.5625 -68.96875 C 66.164062 -68.96875 70.363281 -70.335938 73.15625 -73.078125 C 75.957031 -75.816406 77.359375 -79.6875 77.359375 -84.6875 C 77.359375 -89.457031 75.957031 -93.210938 73.15625 -95.953125 C 70.363281 -98.691406 66.164062 -100.0625 60.5625 -100.0625 L 41.625 -100.0625 Z M 41.625 -68.96875 "/></g></g></g><g fill="#0f172a" fill-opacity="1"><g transform="translate(110.963463, 137.394485)"><g><path d="M 83.796875 0 L 41.625 -55.390625 L 41.625 0 L 11.078125 0 L 11.078125 -125.421875 L 41.625 -125.421875 L 41.625 -70.390625 L 83.4375 -125.421875 L 119.359375 -125.421875 L 70.75 -63.96875 L 121.140625 0 Z M 83.796875 0 "/></g></g></g><g fill="#0f172a" fill-opacity="1"><g transform="translate(240.454908, 95.73659)"><g><path d="M 5.523438 -8.175781 C 10.859375 -8.828125 15.039062 -9.507812 19.003906 -10.425781 C 19.167969 -8.511719 19.175781 -6.910156 19.269531 -5.824219 C 19.492188 -3.214844 21.78125 -1.226562 24.457031 -1.457031 C 26.945312 -1.667969 28.875 -3.824219 28.792969 -6.320312 C 28.71875 -7.917969 28.574219 -10.347656 28.328125 -13.214844 L 31.195312 -14.230469 C 33.246094 -14.984375 34.484375 -17.015625 34.304688 -19.117188 C 34.070312 -21.859375 31.59375 -23.765625 29.109375 -23.550781 C 28.664062 -23.511719 28.289062 -23.417969 27.851562 -23.25 L 27.351562 -23.078125 C 26.570312 -30.714844 25.695312 -38.664062 25.246094 -42.410156 C 24.789062 -46.222656 22.308594 -47.488281 20.140625 -47.300781 C 19.628906 -47.257812 19.191406 -47.15625 18.753906 -46.988281 C 16.515625 -46.15625 15.453125 -44.332031 15.714844 -41.273438 C 15.945312 -38.597656 17.09375 -28.9375 18.039062 -20.160156 C 15.652344 -19.570312 13.070312 -18.964844 10.164062 -18.460938 C 11.183594 -25.992188 12.949219 -33.847656 14.023438 -40.804688 C 14.054688 -41.195312 14.082031 -41.582031 14.050781 -41.964844 C 13.832031 -44.511719 11.664062 -46.574219 8.863281 -46.332031 C 6.695312 -46.148438 4.910156 -44.519531 4.523438 -42.300781 C 2.890625 -31.378906 1.03125 -25.378906 0.207031 -13.304688 C 0.164062 -13.042969 0.1875 -12.789062 0.207031 -12.535156 C 0.308594 -11.386719 0.851562 -10.277344 1.691406 -9.453125 C 2.734375 -8.515625 4.128906 -7.992188 5.523438 -8.175781 Z M 5.523438 -8.175781 "/></g></g></g><g fill="#0f172a" fill-opacity="1"><g transform="translate(275.499374, 92.72993)"><g><path d="M 19.234375 -1.007812 C 29.046875 -1.851562 35.050781 -11.929688 33.90625 -25.246094 C 33.167969 -33.847656 28.101562 -40.539062 20.164062 -42.554688 C 19.875 -45.160156 17.65625 -47.085938 14.980469 -46.859375 C 5.867188 -46.078125 -1.300781 -36.089844 -0.15625 -22.773438 C 0.910156 -10.347656 6.9375 0.046875 19.234375 -1.007812 Z M 9.402344 -23.59375 C 8.882812 -29.644531 10.78125 -35.199219 14.167969 -36.839844 C 14.574219 -35.140625 15.914062 -33.714844 17.683594 -33.289062 C 21.027344 -32.484375 23.957031 -29.015625 24.292969 -25.0625 C 24.941406 -17.542969 22.875 -10.949219 18.414062 -10.566406 C 13.445312 -10.140625 10.195312 -14.355469 9.402344 -23.59375 Z M 9.402344 -23.59375 "/></g></g></g><g fill="#0f172a" fill-opacity="1"><g transform="translate(313.09253, 89.504603)"><g><path d="M 5.523438 -8.175781 C 10.859375 -8.828125 15.039062 -9.507812 19.003906 -10.425781 C 19.167969 -8.511719 19.175781 -6.910156 19.269531 -5.824219 C 19.492188 -3.214844 21.78125 -1.226562 24.457031 -1.457031 C 26.945312 -1.667969 28.875 -3.824219 28.792969 -6.320312 C 28.71875 -7.917969 28.574219 -10.347656 28.328125 -13.214844 L 31.195312 -14.230469 C 33.246094 -14.984375 34.484375 -17.015625 34.304688 -19.117188 C 34.070312 -21.859375 31.59375 -23.765625 29.109375 -23.550781 C 28.664062 -23.511719 28.289062 -23.417969 27.851562 -23.25 L 27.351562 -23.078125 C 26.570312 -30.714844 25.695312 -38.664062 25.246094 -42.410156 C 24.789062 -46.222656 22.308594 -47.488281 20.140625 -47.300781 C 19.628906 -47.257812 19.191406 -47.15625 18.753906 -46.988281 C 16.515625 -46.15625 15.453125 -44.332031 15.714844 -41.273438 C 15.945312 -38.597656 17.09375 -28.9375 18.039062 -20.160156 C 15.652344 -19.570312 13.070312 -18.964844 10.164062 -18.460938 C 11.183594 -25.992188 12.949219 -33.847656 14.023438 -40.804688 C 14.054688 -41.195312 14.082031 -41.582031 14.050781 -41.964844 C 13.832031 -44.511719 11.664062 -46.574219 8.863281 -46.332031 C 6.695312 -46.148438 4.910156 -44.519531 4.523438 -42.300781 C 2.890625 -31.378906 1.03125 -25.378906 0.207031 -13.304688 C 0.164062 -13.042969 0.1875 -12.789062 0.207031 -12.535156 C 0.308594 -11.386719 0.851562 -10.277344 1.691406 -9.453125 C 2.734375 -8.515625 4.128906 -7.992188 5.523438 -8.175781 Z M 5.523438 -8.175781 "/></g></g></g></svg>